<?xml version="1.0" standalone="no"?>
<!DOCTYPE svg PUBLIC "-//W3C//DTD SVG 20010904//EN"
 "http://www.w3.org/TR/2001/REC-SVG-20010904/DTD/svg10.dtd">
<svg version="1.0" xmlns="http://www.w3.org/2000/svg"
 width="610.000000pt" height="343.000000pt" viewBox="0 0 610.000000 343.000000"
 preserveAspectRatio="xMidYMid meet">

<g transform="translate(0.000000,343.000000) scale(0.100000,-0.100000)"
fill="#000000" stroke="none">
<path d="M220 1720 l0 -1530 2840 0 2840 0 0 1530 0 1530 -2840 0 -2840 0 0
-1530z m1365 780 c148 -47 283 -136 383 -253 65 -76 145 -235 166 -334 20 -91
20 -258 1 -343 -55 -235 -205 -429 -414 -535 -87 -44 -130 -56 -152 -45 -17
10 -19 23 -19 159 0 134 -2 152 -23 193 l-23 45 59 11 c128 24 218 89 265 191
21 46 27 75 30 158 4 93 2 106 -22 159 -15 32 -33 65 -40 74 -11 12 -12 26 -4
65 8 38 7 64 -3 105 l-14 55 -39 -2 c-22 -2 -72 -19 -113 -39 l-74 -37 -69 12
c-85 14 -197 13 -270 -2 -54 -12 -57 -11 -130 25 -41 21 -91 40 -111 44 -35 6
-37 4 -49 -31 -8 -23 -11 -67 -8 -111 5 -67 3 -77 -19 -107 -56 -76 -68 -236
-26 -351 38 -103 139 -181 269 -207 l61 -12 -20 -41 c-11 -23 -23 -48 -27 -56
-4 -8 -28 -19 -53 -24 -67 -13 -128 12 -167 69 -38 56 -73 83 -117 91 -45 8
-67 -11 -38 -32 45 -33 77 -69 100 -114 45 -88 120 -127 223 -117 l52 6 0 -84
c0 -74 -2 -86 -20 -95 -43 -23 -212 66 -323 170 -180 168 -267 380 -254 620
18 351 261 643 606 731 107 27 325 21 426 -11z m1420 -365 c39 -11 40 -12 38
-56 0 -24 -6 -56 -12 -71 -9 -25 -12 -26 -43 -17 -52 16 -178 13 -219 -4 -73
-30 -103 -106 -97 -246 6 -145 40 -197 141 -216 20 -4 53 -4 72 -1 l35 7 0 74
0 75 -55 0 -55 0 0 70 0 70 140 0 140 0 0 -194 0 -194 -44 -20 c-60 -29 -167
-46 -235 -38 -203 23 -295 125 -308 342 -13 211 54 362 183 413 77 30 226 33
319 6z m993 -147 l3 -138 119 0 120 0 0 140 0 140 80 0 80 0 0 -370 0 -370
-80 0 -80 0 0 160 0 160 -120 0 -120 0 0 -160 0 -160 -85 0 -85 0 0 363 c0
200 3 367 7 371 4 4 41 5 83 4 l75 -3 3 -137z m1210 13 c3 -122 3 -123 25
-116 109 35 182 27 242 -26 45 -39 65 -107 65 -214 0 -133 -34 -215 -103 -252
-47 -25 -160 -22 -217 6 -38 18 -45 19 -53 6 -5 -10 -24 -15 -62 -15 l-55 0
-2 363 c-2 199 -1 366 0 370 2 4 38 7 80 5 l77 -3 3 -124z m-1895 89 c54 -43
39 -128 -26 -149 -61 -21 -117 18 -117 81 0 76 83 115 143 68z m325 -127 l3
-73 54 0 55 0 0 -65 0 -65 -55 0 -55 0 0 -115 c0 -111 1 -115 24 -131 14 -9
39 -14 58 -12 l33 3 3 -57 c3 -51 1 -57 -20 -64 -45 -14 -145 -7 -185 13 -64
34 -76 66 -81 225 l-5 138 -38 0 -39 0 0 54 0 54 38 9 37 9 3 64 c4 94 1 91
89 88 l78 -3 3 -72z m-298 -323 l0 -250 -80 0 -80 0 0 250 0 250 80 0 80 0 0
-250z m1312 68 l3 -182 26 -15 c22 -12 33 -12 73 -1 l46 13 0 183 0 184 80 0
80 0 0 -250 0 -250 -55 0 c-42 0 -55 3 -55 15 0 19 2 19 -56 -7 -66 -30 -185
-31 -235 -2 -67 39 -74 65 -78 292 l-3 202 86 0 86 0 2 -182z m-3767 -338 c3
-5 1 -10 -4 -10 -6 0 -11 5 -11 10 0 6 2 10 4 10 3 0 8 -4 11 -10z m35 -51 c0
-5 -4 -9 -10 -9 -5 0 -10 7 -10 16 0 8 5 12 10 9 6 -3 10 -10 10 -16z m40 -45
c0 -14 -3 -14 -15 -4 -8 7 -15 14 -15 16 0 2 7 4 15 4 8 0 15 -7 15 -16z m51
-27 c-1 -12 -15 -9 -19 4 -3 6 1 10 8 8 6 -3 11 -8 11 -12z m131 -9 c-6 -6
-16 -7 -22 -3 -9 6 -9 9 1 16 17 10 34 0 21 -13z m-58 3 c3 -5 -1 -11 -9 -15
-15 -6 -29 7 -18 18 9 9 21 8 27 -3z"/>
<path d="M5238 1768 l-28 -10 0 -118 0 -119 41 -11 c90 -24 129 14 129 125 0
119 -51 167 -142 133z"/>
</g>
</svg>
