<svg width="81" height="24" viewBox="0 0 81 24" fill="none" xmlns="http://www.w3.org/2000/svg">
<path d="M0.2 18H3.56V11.448H4.184C4.4 11.952 4.592 12.312 4.832 12.672L8.408 18H12.368L7.664 11.136C10.208 10.584 11.696 8.952 11.696 6.288C11.696 3 9.392 1.152 5.624 1.176L0.2 1.2V18ZM3.56 8.424V4.224H5.432C7.256 4.224 8.288 4.968 8.288 6.312C8.288 7.68 7.256 8.424 5.432 8.424H3.56ZM13.1788 18H16.4188V11.16C16.4188 9 17.6428 8.064 19.0108 8.064C20.6188 8.064 21.6988 9 21.6988 11.16V18H24.9388V10.368C24.9388 7.224 22.8748 5.232 20.1868 5.232C18.3148 5.232 17.0908 5.904 16.4188 7.248V0.48H13.1788V18ZM27.4117 23.016C30.3397 23.016 31.8997 21.312 32.9557 18.792L38.4757 5.52H34.6357L32.2117 12.648C31.9957 13.248 31.8037 13.992 31.6837 14.64C31.5637 13.992 31.3717 13.248 31.1557 12.648L28.7317 5.52H24.8197L29.7637 17.424L29.5957 17.952C29.2357 19.056 28.4437 19.848 27.1957 19.848C26.6677 19.848 26.2117 19.8 25.7317 19.68L25.2517 22.776C25.8997 22.968 26.7637 23.016 27.4117 23.016ZM44.1568 18H45.9328V15.12H44.5888C43.9648 15.12 43.5808 14.76 43.5808 13.968V8.28H46.2208V5.52H43.5808V2.664L40.3408 3V5.52H38.5888V8.28H40.3408V14.136C40.3408 16.848 41.6848 18 44.1568 18ZM47.3038 18H50.5438V11.16C50.5438 9 51.7678 8.064 53.1358 8.064C54.7438 8.064 55.8238 9 55.8238 11.16V18H59.0638V10.368C59.0638 7.224 56.9998 5.232 54.3118 5.232C52.4398 5.232 51.2158 5.904 50.5438 7.248V0.48H47.3038V18ZM60.8741 18H64.1141V11.16C64.1141 9 65.3381 8.064 66.7061 8.064C68.3141 8.064 69.3941 9 69.3941 11.16V18H72.6341V11.16C72.6341 8.76 73.6661 8.064 75.1781 8.064C76.6421 8.064 77.6741 9 77.6741 11.16V18H80.9141V10.368C80.9141 7.224 78.8501 5.232 76.1621 5.232C73.9781 5.232 72.7781 6.072 71.9381 7.584C71.1221 6.072 69.6341 5.232 67.8821 5.232C65.9621 5.232 64.7141 5.952 64.0661 7.344V5.52H60.8741V18Z" fill="#121212"/>
</svg>
